<?xml version="1.0" encoding="utf-8"?>
<svg width="309" height="70" viewBox="98.745 0 214.059 71.604" fill="none" xmlns="http://www.w3.org/2000/svg">
  <g filter="url(#filter0_d_509_52)">
    <path d="M183.793 40.0116H173.385V33.4468H183.793C185.402 33.4468 186.711 33.185 187.721 32.6613C188.731 32.1189 189.469 31.3708 189.937 30.417C190.405 29.4631 190.638 28.3877 190.638 27.1907C190.638 25.975 190.405 24.8435 189.937 23.7961C189.469 22.7488 188.731 21.9071 187.721 21.2712C186.711 20.6353 185.402 20.3174 183.793 20.3174H176.303V54.5718H167.886V13.7246H183.793C186.991 13.7246 189.731 14.3044 192.013 15.464C194.314 16.6049 196.072 18.1853 197.287 20.2052C198.503 22.2251 199.111 24.5349 199.111 27.1346C199.111 29.7717 198.503 32.0535 197.287 33.9799C196.072 35.9063 194.314 37.3931 192.013 38.4405C189.731 39.4879 186.991 40.0116 183.793 40.0116ZM212.942 24.2169V54.5718H204.834V24.2169H212.942ZM204.329 16.3056C204.329 15.1273 204.74 14.1548 205.563 13.388C206.386 12.6211 207.49 12.2377 208.874 12.2377C210.239 12.2377 211.333 12.6211 212.156 13.388C212.998 14.1548 213.419 15.1273 213.419 16.3056C213.419 17.4839 212.998 18.4564 212.156 19.2233C211.333 19.9901 210.239 20.3735 208.874 20.3735C207.49 20.3735 206.386 19.9901 205.563 19.2233C204.74 18.4564 204.329 17.4839 204.329 16.3056ZM243.773 48.2595V54.5718H220.713V48.2595H243.773ZM243.325 28.874L223.967 54.5718H218.552V49.7745L237.826 24.2169H243.325V28.874ZM240.463 24.2169V30.5572H219.001V24.2169H240.463ZM273.006 48.2595V54.5718H249.945V48.2595H273.006ZM272.557 28.874L253.2 54.5718H247.785V49.7745L267.059 24.2169H272.557V28.874ZM269.696 24.2169V30.5572H248.234V24.2169H269.696ZM294.468 47.7265V34.2043C294.468 33.2318 294.309 32.3995 293.991 31.7075C293.673 30.9968 293.177 30.445 292.504 30.0523C291.849 29.6595 290.998 29.4631 289.951 29.4631C289.053 29.4631 288.277 29.6221 287.622 29.94C286.968 30.2393 286.463 30.6788 286.107 31.2586C285.752 31.8197 285.574 32.4836 285.574 33.2505H277.495C277.495 31.96 277.794 30.7349 278.392 29.5753C278.991 28.4157 279.861 27.3964 281.002 26.5174C282.142 25.6197 283.498 24.9183 285.069 24.4133C286.659 23.9083 288.436 23.6559 290.4 23.6559C292.756 23.6559 294.851 24.0486 296.684 24.8341C298.517 25.6197 299.957 26.7979 301.004 28.369C302.07 29.94 302.603 31.9038 302.603 34.2604V47.2496C302.603 48.9141 302.706 50.2795 302.912 51.3455C303.118 52.3929 303.417 53.3093 303.81 54.0949V54.5718H295.646C295.253 53.7488 294.954 52.7202 294.748 51.4858C294.561 50.2327 294.468 48.9796 294.468 47.7265ZM295.534 36.0839L295.59 40.6568H291.073C290.007 40.6568 289.081 40.7784 288.296 41.0215C287.51 41.2647 286.865 41.6107 286.36 42.0595C285.855 42.4897 285.481 42.9947 285.238 43.5745C285.013 44.1543 284.901 44.7902 284.901 45.4822C284.901 46.1742 285.06 46.8007 285.378 47.3618C285.696 47.9042 286.154 48.3344 286.753 48.6523C287.351 48.9516 288.053 49.1012 288.857 49.1012C290.072 49.1012 291.129 48.858 292.027 48.3718C292.925 47.8855 293.617 47.287 294.103 46.5763C294.608 45.8656 294.87 45.1923 294.888 44.5564L297.021 47.979C296.721 48.7458 296.31 49.5407 295.786 50.3636C295.281 51.1865 294.636 51.9627 293.85 52.6921C293.065 53.4028 292.12 53.992 291.017 54.4596C289.913 54.9084 288.604 55.1329 287.089 55.1329C285.163 55.1329 283.414 54.7495 281.843 53.9826C280.291 53.1971 279.056 52.1217 278.14 50.7564C277.242 49.3724 276.793 47.8013 276.793 46.0432C276.793 44.4535 277.093 43.0414 277.691 41.807C278.29 40.5726 279.169 39.5346 280.328 38.693C281.507 37.8327 282.975 37.1874 284.733 36.7573C286.491 36.3084 288.529 36.0839 290.849 36.0839H295.534Z" fill="#FF3F4B"/>
  </g>
  <defs>
    <filter id="filter0_d_509_52" x="162.101" y="5.80922" width="146.209" height="53.1807" filterUnits="userSpaceOnUse" color-interpolation-filters="sRGB">
      <feFlood flood-opacity="0" result="BackgroundImageFix"/>
      <feColorMatrix in="SourceAlpha" type="matrix" values="0 0 0 0 0 0 0 0 0 0 0 0 0 0 0 0 0 0 127 0" result="hardAlpha"/>
      <feOffset dx="-0.642857" dy="-1.28571"/>
      <feGaussianBlur stdDeviation="2.57143"/>
      <feComposite in2="hardAlpha" operator="out"/>
      <feColorMatrix type="matrix" values="0 0 0 0 0 0 0 0 0 0 0 0 0 0 0 0 0 0 0.5 0"/>
      <feBlend mode="normal" in2="BackgroundImageFix" result="effect1_dropShadow_509_52"/>
      <feBlend mode="normal" in="SourceGraphic" in2="effect1_dropShadow_509_52" result="shape"/>
    </filter>
  </defs>
  <text style="fill: rgb(255, 255, 255); font-family: Arial, sans-serif; font-size: 5.4px; font-weight: 700; white-space: pre;" transform="matrix(9.961619, 0, 0, 10.147496, -277.63562, -204.775406)" x="37.978" y="25.534">TC</text>
  <g filter="url(#filter0_d_509_52)" transform="matrix(1, 0, 0, 0.381799, -25.449265, 56.552784)" style=""/>
  <g filter="url(#filter0_d_509_52)" transform="matrix(1, 0, 0, 0.69839, -72.98867, -11.618)" style=""/>
  <text style="fill: rgb(248, 243, 243); font-family: Arial, sans-serif; font-size: 4.9px; white-space: pre;" transform="matrix(1, 0, -0.567883, 1, 36.918133, 0)" x="187.15" y="66.678">Thiarly Cavalcante</text>
</svg>